<?xml version="1.0" encoding="utf-8"?>
<!-- Generator: Adobe Illustrator 23.0.6, SVG Export Plug-In . SVG Version: 6.00 Build 0)  -->
<svg version="1.1" id="Layer_1" xmlns="http://www.w3.org/2000/svg" xmlns:xlink="http://www.w3.org/1999/xlink" x="0px" y="0px"
	 viewBox="0 0 800 60" style="enable-background:new 0 0 800 60;" xml:space="preserve">
<style type="text/css">
	.st0{fill:#E1E1E1;}
	.st1{fill:#0078D7;}
</style>
<g>
	<g>
		<path class="st0" d="M24.3,44.3c-2,0-3.8-0.3-5.5-0.9c-1.6-0.6-3-1.5-4.2-2.6c-1.2-1.1-2.1-2.5-2.7-4.2c-0.6-1.7-1-3.6-1-5.8
			c0-2.2,0.3-4.1,1-5.8c0.6-1.7,1.5-3.1,2.7-4.2c1.2-1.1,2.6-2,4.2-2.6c1.6-0.6,3.5-0.9,5.5-0.9c2.3,0,4.4,0.4,6.2,1.2
			c1.8,0.8,3.3,1.9,4.4,3.4c1.1,1.4,1.8,3.1,1.9,5h-7.4c-0.2-0.7-0.5-1.3-1-1.8c-0.5-0.5-1.1-0.9-1.8-1.2c-0.7-0.3-1.5-0.4-2.4-0.4
			c-1.2,0-2.2,0.2-3.1,0.7c-0.9,0.5-1.6,1.3-2.1,2.3c-0.5,1.1-0.7,2.5-0.7,4.2c0,1.3,0.1,2.4,0.4,3.3c0.3,0.9,0.7,1.7,1.2,2.3
			c0.5,0.6,1.1,1,1.9,1.3c0.7,0.3,1.5,0.4,2.4,0.4c0.8,0,1.6-0.1,2.3-0.4c0.7-0.3,1.3-0.7,1.8-1.2s0.8-1.1,1-1.8h7.4
			c-0.2,1.9-0.9,3.6-2,5.1c-1.1,1.5-2.6,2.6-4.4,3.4C28.6,43.9,26.5,44.3,24.3,44.3z"/>
		<path class="st0" d="M39.5,43.9V17.7h6.9v9.9h0.3c0.5-1.2,1.2-2.1,2.3-2.7c1-0.6,2.2-0.9,3.5-0.9c1,0,1.9,0.1,2.7,0.4
			c0.8,0.3,1.6,0.7,2.2,1.4c0.6,0.6,1.1,1.4,1.5,2.5c0.3,1,0.5,2.3,0.5,3.7v12h-6.9V33.4c0-0.9-0.1-1.6-0.3-2.2
			c-0.2-0.6-0.5-1-0.9-1.3c-0.4-0.3-1-0.4-1.7-0.4c-0.7,0-1.3,0.2-1.8,0.5c-0.5,0.3-0.8,0.8-1.1,1.3c-0.2,0.5-0.4,1-0.4,1.5v11.1
			H39.5z"/>
		<path class="st0" d="M62.9,43.9V24.3h6.2l0.3,2.8h0.3c0.4-1.2,1.1-2.1,2-2.5c0.9-0.4,1.9-0.6,3.1-0.6c0.2,0,0.4,0,0.6,0
			c0.2,0,0.3,0,0.5,0v6.4c-0.1,0-0.3,0-0.5,0c-0.2,0-0.5,0-0.7,0c-1.2,0-2.2,0.2-2.9,0.5c-0.7,0.3-1.2,0.8-1.5,1.4s-0.4,1.4-0.4,2.3
			v9.3H62.9z"/>
		<path class="st0" d="M87.4,44.3c-1.5,0-2.9-0.2-4.1-0.7c-1.2-0.4-2.3-1.1-3.2-2c-0.9-0.9-1.6-1.9-2.1-3.2
			c-0.5-1.3-0.7-2.7-0.7-4.3c0-2,0.4-3.8,1.2-5.3s1.9-2.7,3.4-3.5c1.5-0.9,3.3-1.3,5.5-1.3c1.5,0,2.9,0.2,4.1,0.7
			c1.2,0.4,2.3,1.1,3.2,2c0.9,0.9,1.6,1.9,2.1,3.2c0.5,1.2,0.7,2.7,0.7,4.3c0,2-0.4,3.8-1.2,5.3c-0.8,1.5-1.9,2.7-3.4,3.6
			C91.4,43.9,89.6,44.3,87.4,44.3z M87.4,38.8c0.6,0,1.2-0.2,1.6-0.5c0.5-0.3,0.8-0.8,1.1-1.5c0.3-0.7,0.4-1.6,0.4-2.7
			c0-0.8-0.1-1.6-0.2-2.1c-0.1-0.6-0.4-1.1-0.6-1.4s-0.6-0.6-1-0.8c-0.4-0.2-0.8-0.3-1.3-0.3c-0.6,0-1.2,0.2-1.6,0.5
			c-0.5,0.3-0.8,0.8-1.1,1.5c-0.3,0.7-0.4,1.6-0.4,2.7c0,0.8,0.1,1.6,0.2,2.1c0.1,0.6,0.4,1.1,0.6,1.4s0.6,0.6,1,0.8
			C86.5,38.7,86.9,38.8,87.4,38.8z"/>
		<path class="st0" d="M100.3,43.9V24.3h6.6l0.3,3.2h0.3c0.5-1.2,1.2-2.1,2.3-2.7c1-0.6,2.2-0.9,3.5-0.9c1,0,1.9,0.1,2.7,0.4
			c0.8,0.3,1.6,0.7,2.2,1.4c0.6,0.6,1.1,1.4,1.5,2.5c0.3,1,0.5,2.3,0.5,3.7v12h-6.9V33.4c0-0.9-0.1-1.6-0.3-2.2
			c-0.2-0.6-0.5-1-0.9-1.3c-0.4-0.3-1-0.4-1.7-0.4c-0.7,0-1.3,0.2-1.8,0.5c-0.5,0.3-0.8,0.8-1.1,1.3c-0.2,0.5-0.4,1-0.4,1.5v11.1
			H100.3z"/>
		<path class="st0" d="M132.6,44.3c-1.5,0-2.9-0.2-4.1-0.7c-1.2-0.4-2.3-1.1-3.2-2c-0.9-0.9-1.6-1.9-2.1-3.2
			c-0.5-1.3-0.7-2.7-0.7-4.3c0-2,0.4-3.8,1.2-5.3s1.9-2.7,3.4-3.5c1.5-0.9,3.3-1.3,5.5-1.3c1.5,0,2.9,0.2,4.1,0.7
			c1.2,0.4,2.3,1.1,3.2,2c0.9,0.9,1.6,1.9,2.1,3.2c0.5,1.2,0.7,2.7,0.7,4.3c0,2-0.4,3.8-1.2,5.3c-0.8,1.5-1.9,2.7-3.4,3.6
			C136.6,43.9,134.8,44.3,132.6,44.3z M132.6,38.8c0.6,0,1.2-0.2,1.6-0.5c0.5-0.3,0.8-0.8,1.1-1.5c0.3-0.7,0.4-1.6,0.4-2.7
			c0-0.8-0.1-1.6-0.2-2.1c-0.1-0.6-0.4-1.1-0.6-1.4s-0.6-0.6-1-0.8c-0.4-0.2-0.8-0.3-1.3-0.3c-0.6,0-1.2,0.2-1.6,0.5
			c-0.5,0.3-0.8,0.8-1.1,1.5c-0.3,0.7-0.4,1.6-0.4,2.7c0,0.8,0.1,1.6,0.2,2.1c0.1,0.6,0.4,1.1,0.6,1.4s0.6,0.6,1,0.8
			C131.8,38.7,132.2,38.8,132.6,38.8z"/>
		<path class="st1" d="M163.1,44.3c-2.4,0-4.5-0.4-6.2-1.1c-1.7-0.7-3-1.7-3.8-3c-0.9-1.3-1.3-2.8-1.3-4.6h7.4
			c0,0.6,0.1,1.2,0.4,1.6c0.3,0.5,0.7,0.8,1.4,1.1c0.6,0.3,1.4,0.4,2.4,0.4c0.7,0,1.3-0.1,1.8-0.2c0.5-0.2,0.9-0.4,1.2-0.8
			c0.3-0.3,0.4-0.8,0.4-1.4c0-0.4-0.1-0.7-0.2-1c-0.2-0.3-0.4-0.5-0.8-0.6c-0.4-0.2-0.9-0.3-1.6-0.5c-0.7-0.1-1.6-0.3-2.7-0.5
			c-1.5-0.2-2.8-0.5-4-1c-1.2-0.4-2.1-1-2.9-1.6c-0.8-0.6-1.3-1.4-1.7-2.3c-0.4-0.9-0.6-1.9-0.6-3.1c0-1.8,0.4-3.3,1.3-4.6
			c0.9-1.3,2.1-2.2,3.7-2.9c1.6-0.7,3.5-1,5.8-1c2.1,0,4,0.3,5.5,1c1.6,0.7,2.8,1.6,3.7,2.8c0.9,1.2,1.3,2.6,1.3,4.2h-7.3
			c0-0.6-0.2-1.2-0.5-1.5c-0.3-0.4-0.8-0.6-1.3-0.8s-1-0.2-1.5-0.2c-0.6,0-1.2,0.1-1.6,0.2c-0.5,0.1-0.8,0.4-1.1,0.7
			c-0.3,0.3-0.4,0.7-0.4,1.2c0,0.5,0.1,0.9,0.4,1.2c0.3,0.3,0.8,0.6,1.7,0.8c0.8,0.2,2,0.4,3.5,0.7c1.1,0.1,2.1,0.4,3.1,0.6
			c1,0.3,2,0.7,2.9,1.3c0.9,0.6,1.6,1.4,2.1,2.4s0.8,2.4,0.8,4c0,1.6-0.4,3.1-1.3,4.4c-0.8,1.3-2.1,2.3-3.8,3
			C167.7,43.9,165.6,44.3,163.1,44.3z"/>
		<path class="st1" d="M177.2,43.9V17.7h6.9v26.2H177.2z"/>
		<path class="st1" d="M191.5,22.7c-1,0-1.8-0.3-2.5-0.8c-0.7-0.5-1-1.3-1-2.2s0.3-1.7,1-2.2c0.7-0.5,1.5-0.8,2.5-0.8
			c1,0,1.8,0.3,2.5,0.8s1,1.3,1,2.2s-0.3,1.7-1,2.2C193.3,22.5,192.5,22.7,191.5,22.7z M188,43.9V24.3h6.9v19.6H188z"/>
		<path class="st1" d="M205.7,44.3c-1.2,0-2.3-0.2-3.2-0.7c-1-0.5-1.8-1.1-2.5-2c-0.7-0.9-1.2-1.9-1.6-3.2s-0.6-2.7-0.6-4.3
			c0-2.2,0.3-4,1-5.5c0.7-1.5,1.6-2.7,2.8-3.5c1.2-0.8,2.6-1.2,4.1-1.2c0.9,0,1.7,0.1,2.4,0.4c0.7,0.3,1.4,0.6,1.9,1.1
			c0.5,0.5,0.9,1,1.2,1.7h0.3v-9.5h6.9v26.2h-6.6l-0.3-2.8h-0.4c-0.4,1-1,1.7-2.1,2.3C208.2,44,207,44.3,205.7,44.3z M208.3,38.8
			c0.8,0,1.4-0.2,1.9-0.5c0.5-0.3,0.8-0.8,1.1-1.3s0.3-1.2,0.3-2v-1.7c0-0.8-0.1-1.5-0.4-2.1c-0.3-0.6-0.6-1-1.1-1.3
			c-0.5-0.3-1-0.4-1.6-0.4c-0.9,0-1.6,0.2-2.1,0.6c-0.5,0.4-0.9,0.9-1.2,1.6c-0.2,0.7-0.4,1.5-0.4,2.4c0,0.9,0.1,1.7,0.3,2.4
			c0.2,0.7,0.6,1.3,1.1,1.6S207.4,38.8,208.3,38.8z"/>
		<path class="st1" d="M231.4,44.3c-2.1,0-4-0.4-5.5-1.2c-1.5-0.8-2.6-2-3.4-3.5s-1.2-3.2-1.2-5.2c0-2.1,0.4-4,1.2-5.5
			c0.8-1.5,2-2.7,3.4-3.6c1.5-0.8,3.2-1.2,5.2-1.2c2.4,0,4.3,0.5,5.8,1.5c1.5,1,2.6,2.4,3.3,4.2c0.7,1.8,0.9,3.8,0.6,6H228
			c0,0.7,0.1,1.3,0.4,1.9c0.3,0.5,0.7,0.9,1.2,1.2c0.5,0.3,1.1,0.4,1.8,0.4c0.8,0,1.4-0.1,1.9-0.4c0.5-0.3,0.8-0.6,0.9-1h6.5
			c-0.2,1.3-0.7,2.5-1.5,3.4s-1.9,1.7-3.2,2.3S233.1,44.3,231.4,44.3z M228,32.2l-0.6-0.6h7.2l-0.6,0.5c0-0.7,0-1.2-0.3-1.7
			c-0.2-0.5-0.6-0.8-1-1.1c-0.5-0.3-1-0.4-1.6-0.4c-0.6,0-1.2,0.1-1.7,0.4c-0.5,0.3-0.8,0.6-1.1,1.1C228.1,31,228,31.6,228,32.2z"/>
		<path class="st1" d="M251.6,44.3c-1.4,0-2.6-0.2-3.7-0.5c-1.1-0.3-2-0.8-2.8-1.3c-0.8-0.6-1.4-1.3-1.8-2.1s-0.6-1.7-0.6-2.6h6.8
			c0,0.4,0.2,0.7,0.4,1c0.2,0.3,0.5,0.5,0.8,0.6c0.3,0.1,0.7,0.2,1.2,0.2c0.7,0,1.2-0.1,1.5-0.3c0.3-0.2,0.5-0.5,0.5-0.9
			c0-0.4-0.1-0.6-0.3-0.8c-0.2-0.2-0.5-0.3-0.9-0.4c-0.4-0.1-1-0.2-1.8-0.3c-1.8-0.3-3.2-0.6-4.3-1.1c-1.1-0.5-2-1.1-2.5-1.9
			s-0.8-1.9-0.8-3.2c0-1.3,0.4-2.5,1.1-3.5c0.7-1,1.8-1.8,3.1-2.3c1.3-0.6,2.9-0.8,4.6-0.8c1.6,0,3.1,0.3,4.3,0.8
			c1.2,0.5,2.2,1.2,2.9,2.2c0.7,0.9,1.1,2,1.2,3.2h-6.8c0-0.3-0.1-0.6-0.2-0.8c-0.2-0.2-0.4-0.4-0.6-0.5c-0.3-0.1-0.6-0.2-1-0.2
			c-0.5,0-0.9,0.1-1.2,0.3c-0.3,0.2-0.5,0.5-0.5,0.9c0,0.3,0.1,0.6,0.3,0.8c0.2,0.2,0.6,0.3,1.2,0.5s1.3,0.2,2.1,0.4
			c1.7,0.2,3.1,0.6,4.1,1c1,0.5,1.8,1.1,2.3,1.9c0.5,0.8,0.7,1.9,0.7,3.1c0,1.4-0.4,2.6-1.1,3.6c-0.8,1-1.8,1.7-3.2,2.3
			S253.4,44.3,251.6,44.3z"/>
		<path class="st1" d="M263.5,43.9V17.7h6.9v9.9h0.3c0.5-1.2,1.2-2.1,2.3-2.7c1-0.6,2.2-0.9,3.5-0.9c1,0,1.9,0.1,2.7,0.4
			c0.8,0.3,1.6,0.7,2.2,1.4c0.6,0.6,1.1,1.4,1.5,2.5c0.3,1,0.5,2.3,0.5,3.7v12h-6.9V33.4c0-0.9-0.1-1.6-0.3-2.2
			c-0.2-0.6-0.5-1-0.9-1.3c-0.4-0.3-1-0.4-1.7-0.4c-0.7,0-1.3,0.2-1.8,0.5c-0.5,0.3-0.8,0.8-1.1,1.3c-0.2,0.5-0.4,1-0.4,1.5v11.1
			H263.5z"/>
		<path class="st1" d="M295.9,44.3c-1.5,0-2.9-0.2-4.1-0.7c-1.2-0.4-2.3-1.1-3.2-2c-0.9-0.9-1.6-1.9-2.1-3.2
			c-0.5-1.3-0.7-2.7-0.7-4.3c0-2,0.4-3.8,1.2-5.3s1.9-2.7,3.4-3.5c1.5-0.9,3.3-1.3,5.5-1.3c1.5,0,2.9,0.2,4.1,0.7
			c1.2,0.4,2.3,1.1,3.2,2c0.9,0.9,1.6,1.9,2.1,3.2c0.5,1.2,0.7,2.7,0.7,4.3c0,2-0.4,3.8-1.2,5.3c-0.8,1.5-1.9,2.7-3.4,3.6
			C299.9,43.9,298.1,44.3,295.9,44.3z M295.9,38.8c0.6,0,1.2-0.2,1.6-0.5c0.5-0.3,0.8-0.8,1.1-1.5c0.3-0.7,0.4-1.6,0.4-2.7
			c0-0.8-0.1-1.6-0.2-2.1c-0.1-0.6-0.4-1.1-0.6-1.4s-0.6-0.6-1-0.8c-0.4-0.2-0.8-0.3-1.3-0.3c-0.6,0-1.2,0.2-1.6,0.5
			c-0.5,0.3-0.8,0.8-1.1,1.5c-0.3,0.7-0.4,1.6-0.4,2.7c0,0.8,0.1,1.6,0.2,2.1c0.1,0.6,0.4,1.1,0.6,1.4s0.6,0.6,1,0.8
			C295,38.7,295.4,38.8,295.9,38.8z"/>
		<path class="st1" d="M311.6,43.9l-4.3-19.6h7.1L316,33l0.7,4.7h0.3l0.6-4.7l1.3-8.7h7.4l1.3,8.7l0.5,4.8h0.3l0.6-4.8l1.7-8.7h6.8
			L333,43.9h-9l-1-6.5l-0.6-5h-0.2l-0.6,5l-1,6.5H311.6z"/>
		<path class="st0" d="M359.5,44.3c-2,0-3.8-0.3-5.5-0.9c-1.6-0.6-3-1.5-4.2-2.6c-1.2-1.1-2.1-2.5-2.7-4.2c-0.6-1.7-1-3.6-1-5.8
			c0-2.2,0.3-4.1,1-5.8c0.6-1.7,1.5-3.1,2.7-4.2c1.2-1.1,2.6-2,4.2-2.6c1.6-0.6,3.5-0.9,5.5-0.9c2.3,0,4.4,0.4,6.2,1.2
			c1.8,0.8,3.3,1.9,4.4,3.4c1.1,1.4,1.8,3.1,1.9,5h-7.4c-0.2-0.7-0.5-1.3-1-1.8c-0.5-0.5-1.1-0.9-1.8-1.2c-0.7-0.3-1.5-0.4-2.4-0.4
			c-1.2,0-2.2,0.2-3.1,0.7c-0.9,0.5-1.6,1.3-2.1,2.3c-0.5,1.1-0.7,2.5-0.7,4.2c0,1.3,0.1,2.4,0.4,3.3c0.3,0.9,0.7,1.7,1.2,2.3
			c0.5,0.6,1.1,1,1.9,1.3c0.7,0.3,1.5,0.4,2.4,0.4c0.8,0,1.6-0.1,2.3-0.4c0.7-0.3,1.3-0.7,1.8-1.2s0.8-1.1,1-1.8h7.4
			c-0.2,1.9-0.9,3.6-2,5.1c-1.1,1.5-2.6,2.6-4.4,3.4C363.9,43.9,361.8,44.3,359.5,44.3z"/>
		<path class="st0" d="M381.8,44.3c-1.2,0-2.3-0.2-3.2-0.7c-1-0.5-1.8-1.1-2.5-2c-0.7-0.9-1.2-1.9-1.6-3.2s-0.6-2.7-0.6-4.3
			c0-2.2,0.3-4,1-5.5c0.7-1.5,1.6-2.7,2.8-3.5c1.2-0.8,2.6-1.2,4.1-1.2c0.9,0,1.7,0.1,2.4,0.4c0.7,0.3,1.4,0.6,1.9,1.1
			c0.5,0.5,0.9,1,1.2,1.7h0.4l0.3-2.8h6.6v19.6h-6.6l-0.3-2.8h-0.4c-0.4,1-1,1.7-2.1,2.3C384.2,44,383.1,44.3,381.8,44.3z
			 M384.3,38.8c0.8,0,1.4-0.2,1.9-0.5c0.5-0.3,0.8-0.8,1.1-1.3s0.3-1.2,0.3-2v-1.7c0-0.8-0.1-1.5-0.4-2.1c-0.3-0.6-0.6-1-1.1-1.3
			c-0.5-0.3-1-0.4-1.6-0.4c-0.9,0-1.6,0.2-2.1,0.6c-0.5,0.4-0.9,0.9-1.2,1.6c-0.2,0.7-0.4,1.5-0.4,2.4c0,0.9,0.1,1.7,0.3,2.4
			c0.2,0.7,0.6,1.3,1.1,1.6S383.5,38.8,384.3,38.8z"/>
		<path class="st0" d="M398.4,43.9V24.3h6.2l0.3,2.8h0.3c0.4-1.2,1.1-2.1,2-2.5c0.9-0.4,1.9-0.6,3.1-0.6c0.2,0,0.4,0,0.6,0
			s0.3,0,0.5,0v6.4c-0.1,0-0.3,0-0.5,0c-0.2,0-0.5,0-0.7,0c-1.2,0-2.2,0.2-2.9,0.5s-1.2,0.8-1.5,1.4c-0.3,0.6-0.4,1.4-0.4,2.3v9.3
			H398.4z"/>
		<path class="st0" d="M420.8,44.3c-1.2,0-2.3-0.2-3.2-0.7c-1-0.5-1.8-1.1-2.5-2c-0.7-0.9-1.2-1.9-1.6-3.2c-0.4-1.3-0.6-2.7-0.6-4.3
			c0-2.2,0.3-4,1-5.5c0.7-1.5,1.6-2.7,2.8-3.5s2.6-1.2,4.1-1.2c0.9,0,1.7,0.1,2.4,0.4s1.4,0.6,1.9,1.1c0.5,0.5,0.9,1,1.2,1.7h0.3
			v-9.5h6.9v26.2H427l-0.3-2.8h-0.4c-0.4,1-1,1.7-2.1,2.3C423.3,44,422.1,44.3,420.8,44.3z M423.4,38.8c0.8,0,1.4-0.2,1.9-0.5
			c0.5-0.3,0.8-0.8,1.1-1.3c0.2-0.6,0.3-1.2,0.3-2v-1.7c0-0.8-0.1-1.5-0.4-2.1c-0.3-0.6-0.6-1-1.1-1.3c-0.5-0.3-1-0.4-1.6-0.4
			c-0.9,0-1.6,0.2-2.1,0.6c-0.5,0.4-0.9,0.9-1.2,1.6c-0.2,0.7-0.4,1.5-0.4,2.4c0,0.9,0.1,1.7,0.3,2.4c0.2,0.7,0.6,1.3,1.1,1.6
			S422.5,38.8,423.4,38.8z"/>
		<path class="st0" d="M446.3,43.9V29.8h-2.9v-5.5h2.9V23c0-1.7,0.6-3,1.7-4s2.7-1.4,4.7-1.4h4.4v4.4h-2.6c-0.4,0-0.7,0.1-1,0.3
			c-0.3,0.2-0.4,0.5-0.4,1v1h3.7v5.5h-3.7v14.1H446.3z"/>
		<path class="st0" d="M468.4,44.3c-1.5,0-2.9-0.2-4.1-0.7c-1.2-0.4-2.3-1.1-3.2-2c-0.9-0.9-1.6-1.9-2.1-3.2
			c-0.5-1.3-0.7-2.7-0.7-4.3c0-2,0.4-3.8,1.2-5.3c0.8-1.5,1.9-2.7,3.4-3.5c1.5-0.9,3.3-1.3,5.5-1.3c1.5,0,2.9,0.2,4.1,0.7
			c1.2,0.4,2.3,1.1,3.2,2c0.9,0.9,1.6,1.9,2.1,3.2c0.5,1.2,0.7,2.7,0.7,4.3c0,2-0.4,3.8-1.2,5.3c-0.8,1.5-1.9,2.7-3.4,3.6
			C472.4,43.9,470.5,44.3,468.4,44.3z M468.4,38.8c0.6,0,1.2-0.2,1.6-0.5c0.5-0.3,0.8-0.8,1.1-1.5c0.3-0.7,0.4-1.6,0.4-2.7
			c0-0.8-0.1-1.6-0.2-2.1c-0.1-0.6-0.4-1.1-0.6-1.4c-0.3-0.4-0.6-0.6-1-0.8s-0.8-0.3-1.3-0.3c-0.6,0-1.2,0.2-1.6,0.5
			c-0.5,0.3-0.8,0.8-1.1,1.5c-0.3,0.7-0.4,1.6-0.4,2.7c0,0.8,0.1,1.6,0.2,2.1c0.1,0.6,0.4,1.1,0.6,1.4c0.3,0.4,0.6,0.6,1,0.8
			C467.5,38.7,467.9,38.8,468.4,38.8z"/>
		<path class="st0" d="M481.3,43.9V24.3h6.2l0.3,2.8h0.3c0.4-1.2,1.1-2.1,2-2.5c0.9-0.4,1.9-0.6,3.1-0.6c0.2,0,0.4,0,0.6,0
			s0.3,0,0.5,0v6.4c-0.1,0-0.3,0-0.5,0s-0.5,0-0.7,0c-1.2,0-2.2,0.2-2.9,0.5c-0.7,0.3-1.2,0.8-1.5,1.4c-0.3,0.6-0.4,1.4-0.4,2.3v9.3
			H481.3z"/>
		<path class="st0" d="M504.3,43.9V17.7h7.3v26.2H504.3z M510.2,33.7v-6.2h12.7v6.2H510.2z M521.6,43.9V17.7h7.3v26.2H521.6z"/>
		<path class="st0" d="M542,44.3c-1.5,0-2.9-0.2-4.1-0.7c-1.2-0.4-2.3-1.1-3.2-2c-0.9-0.9-1.6-1.9-2.1-3.2c-0.5-1.3-0.7-2.7-0.7-4.3
			c0-2,0.4-3.8,1.2-5.3c0.8-1.5,1.9-2.7,3.4-3.5c1.5-0.9,3.3-1.3,5.5-1.3c1.5,0,2.9,0.2,4.1,0.7c1.2,0.4,2.3,1.1,3.2,2
			c0.9,0.9,1.6,1.9,2.1,3.2c0.5,1.2,0.7,2.7,0.7,4.3c0,2-0.4,3.8-1.2,5.3c-0.8,1.5-1.9,2.7-3.4,3.6C545.9,43.9,544.1,44.3,542,44.3z
			 M542,38.8c0.6,0,1.2-0.2,1.6-0.5c0.5-0.3,0.8-0.8,1.1-1.5c0.3-0.7,0.4-1.6,0.4-2.7c0-0.8-0.1-1.6-0.2-2.1
			c-0.1-0.6-0.4-1.1-0.6-1.4c-0.3-0.4-0.6-0.6-1-0.8s-0.8-0.3-1.3-0.3c-0.6,0-1.2,0.2-1.6,0.5c-0.5,0.3-0.8,0.8-1.1,1.5
			c-0.3,0.7-0.4,1.6-0.4,2.7c0,0.8,0.1,1.6,0.2,2.1c0.1,0.6,0.4,1.1,0.6,1.4c0.3,0.4,0.6,0.6,1,0.8C541.1,38.7,541.5,38.8,542,38.8z
			"/>
		<path class="st0" d="M554.8,43.9V24.3h6.7l0.2,3.2h0.3c0.4-1.2,1.2-2.1,2.2-2.7c1-0.6,2.1-0.9,3.3-0.9c1.3,0,2.5,0.3,3.6,0.9
			c1.1,0.6,1.9,1.7,2.5,3.2h0.3c0.4-1.4,1.2-2.4,2.3-3.1c1.1-0.7,2.4-1,3.8-1c1.2,0,2.3,0.3,3.3,0.8s1.8,1.4,2.4,2.5
			c0.6,1.2,0.9,2.7,0.9,4.7v12h-6.9V33.4c0-0.9-0.1-1.6-0.3-2.2c-0.2-0.6-0.4-1-0.8-1.3s-0.9-0.4-1.5-0.4c-0.6,0-1.2,0.2-1.6,0.5
			c-0.4,0.3-0.8,0.8-1,1.3c-0.2,0.5-0.3,1-0.3,1.5v11.1h-6.9V33.4c0-0.9-0.1-1.6-0.3-2.2c-0.2-0.6-0.4-1-0.8-1.3s-0.9-0.4-1.5-0.4
			c-0.6,0-1.2,0.2-1.6,0.5c-0.4,0.3-0.8,0.8-1,1.3c-0.2,0.5-0.3,1-0.3,1.5v11.1H554.8z"/>
		<path class="st0" d="M599.1,44.3c-2.1,0-4-0.4-5.5-1.2c-1.5-0.8-2.6-2-3.4-3.5s-1.2-3.2-1.2-5.2c0-2.1,0.4-4,1.2-5.5
			c0.8-1.5,2-2.7,3.4-3.6c1.5-0.8,3.2-1.2,5.2-1.2c2.4,0,4.3,0.5,5.8,1.5c1.5,1,2.6,2.4,3.3,4.2c0.7,1.8,0.9,3.8,0.6,6h-12.8
			c0,0.7,0.1,1.3,0.4,1.9c0.3,0.5,0.7,0.9,1.2,1.2c0.5,0.3,1.1,0.4,1.8,0.4c0.8,0,1.4-0.1,1.9-0.4c0.5-0.3,0.8-0.6,0.9-1h6.5
			c-0.2,1.3-0.7,2.5-1.5,3.4c-0.8,1-1.9,1.7-3.2,2.3S600.8,44.3,599.1,44.3z M595.8,32.2l-0.6-0.6h7.2l-0.6,0.5c0-0.7,0-1.2-0.3-1.7
			s-0.6-0.8-1-1.1s-1-0.4-1.6-0.4c-0.6,0-1.2,0.1-1.7,0.4c-0.5,0.3-0.8,0.6-1.1,1.1C595.9,31,595.8,31.6,595.8,32.2z"/>
		<path class="st0" d="M617.3,43.9l8.2-26.2h10.4l8.2,26.2h-7.6l-4.8-17.4l-0.9-3.4h-0.3l-0.9,3.4l-4.8,17.4H617.3z M625.7,39.2
			l1.6-5.5h6.7l1.6,5.5H625.7z"/>
		<path class="st0" d="M654.2,44.3c-1.4,0-2.6-0.2-3.7-0.5c-1.1-0.3-2-0.8-2.8-1.3c-0.8-0.6-1.4-1.3-1.8-2.1
			c-0.4-0.8-0.6-1.7-0.6-2.6h6.8c0,0.4,0.2,0.7,0.4,1c0.2,0.3,0.5,0.5,0.8,0.6c0.3,0.1,0.7,0.2,1.2,0.2c0.7,0,1.2-0.1,1.5-0.3
			c0.3-0.2,0.5-0.5,0.5-0.9c0-0.4-0.1-0.6-0.3-0.8c-0.2-0.2-0.5-0.3-0.9-0.4c-0.4-0.1-1-0.2-1.8-0.3c-1.8-0.3-3.2-0.6-4.3-1.1
			c-1.1-0.5-2-1.1-2.5-1.9s-0.8-1.9-0.8-3.2c0-1.3,0.4-2.5,1.1-3.5c0.7-1,1.8-1.8,3.1-2.3c1.3-0.6,2.9-0.8,4.6-0.8
			c1.6,0,3.1,0.3,4.3,0.8s2.2,1.2,2.9,2.2c0.7,0.9,1.1,2,1.2,3.2h-6.8c0-0.3-0.1-0.6-0.2-0.8s-0.4-0.4-0.6-0.5
			c-0.3-0.1-0.6-0.2-1-0.2c-0.5,0-0.9,0.1-1.2,0.3c-0.3,0.2-0.5,0.5-0.5,0.9c0,0.3,0.1,0.6,0.3,0.8c0.2,0.2,0.6,0.3,1.2,0.5
			s1.3,0.2,2.1,0.4c1.7,0.2,3.1,0.6,4.1,1c1,0.5,1.8,1.1,2.3,1.9c0.5,0.8,0.7,1.9,0.7,3.1c0,1.4-0.4,2.6-1.1,3.6
			c-0.8,1-1.8,1.7-3.2,2.3S656.1,44.3,654.2,44.3z"/>
		<path class="st0" d="M674,44.3c-1.4,0-2.6-0.2-3.7-0.5c-1.1-0.3-2-0.8-2.8-1.3c-0.8-0.6-1.4-1.3-1.8-2.1c-0.4-0.8-0.6-1.7-0.6-2.6
			h6.8c0,0.4,0.2,0.7,0.4,1c0.2,0.3,0.5,0.5,0.8,0.6c0.3,0.1,0.7,0.2,1.2,0.2c0.7,0,1.2-0.1,1.5-0.3c0.3-0.2,0.5-0.5,0.5-0.9
			c0-0.4-0.1-0.6-0.3-0.8c-0.2-0.2-0.5-0.3-0.9-0.4c-0.4-0.1-1-0.2-1.8-0.3c-1.8-0.3-3.2-0.6-4.3-1.1c-1.1-0.5-2-1.1-2.5-1.9
			s-0.8-1.9-0.8-3.2c0-1.3,0.4-2.5,1.1-3.5c0.7-1,1.8-1.8,3.1-2.3c1.3-0.6,2.9-0.8,4.6-0.8c1.6,0,3.1,0.3,4.3,0.8s2.2,1.2,2.9,2.2
			c0.7,0.9,1.1,2,1.2,3.2h-6.8c0-0.3-0.1-0.6-0.2-0.8s-0.4-0.4-0.6-0.5c-0.3-0.1-0.6-0.2-1-0.2c-0.5,0-0.9,0.1-1.2,0.3
			c-0.3,0.2-0.5,0.5-0.5,0.9c0,0.3,0.1,0.6,0.3,0.8c0.2,0.2,0.6,0.3,1.2,0.5s1.3,0.2,2.1,0.4c1.7,0.2,3.1,0.6,4.1,1
			c1,0.5,1.8,1.1,2.3,1.9c0.5,0.8,0.7,1.9,0.7,3.1c0,1.4-0.4,2.6-1.1,3.6c-0.8,1-1.8,1.7-3.2,2.3S675.8,44.3,674,44.3z"/>
		<path class="st0" d="M689.3,22.7c-1,0-1.8-0.3-2.5-0.8c-0.7-0.5-1-1.3-1-2.2s0.3-1.7,1-2.2c0.7-0.5,1.5-0.8,2.5-0.8
			c1,0,1.8,0.3,2.5,0.8c0.7,0.5,1,1.3,1,2.2s-0.3,1.7-1,2.2C691.2,22.5,690.3,22.7,689.3,22.7z M685.9,43.9V24.3h6.9v19.6H685.9z"/>
		<path class="st0" d="M704.5,44.3c-1.4,0-2.6-0.2-3.7-0.5c-1.1-0.3-2-0.8-2.8-1.3c-0.8-0.6-1.4-1.3-1.8-2.1
			c-0.4-0.8-0.6-1.7-0.6-2.6h6.8c0,0.4,0.2,0.7,0.4,1c0.2,0.3,0.5,0.5,0.8,0.6c0.3,0.1,0.7,0.2,1.2,0.2c0.7,0,1.2-0.1,1.5-0.3
			c0.3-0.2,0.5-0.5,0.5-0.9c0-0.4-0.1-0.6-0.3-0.8c-0.2-0.2-0.5-0.3-0.9-0.4c-0.4-0.1-1-0.2-1.8-0.3c-1.8-0.3-3.2-0.6-4.3-1.1
			c-1.1-0.5-2-1.1-2.5-1.9s-0.8-1.9-0.8-3.2c0-1.3,0.4-2.5,1.1-3.5c0.7-1,1.8-1.8,3.1-2.3c1.3-0.6,2.9-0.8,4.6-0.8
			c1.6,0,3.1,0.3,4.3,0.8s2.2,1.2,2.9,2.2c0.7,0.9,1.1,2,1.2,3.2h-6.8c0-0.3-0.1-0.6-0.2-0.8s-0.4-0.4-0.6-0.5
			c-0.3-0.1-0.6-0.2-1-0.2c-0.5,0-0.9,0.1-1.2,0.3c-0.3,0.2-0.5,0.5-0.5,0.9c0,0.3,0.1,0.6,0.3,0.8c0.2,0.2,0.6,0.3,1.2,0.5
			s1.3,0.2,2.1,0.4c1.7,0.2,3.1,0.6,4.1,1c1,0.5,1.8,1.1,2.3,1.9c0.5,0.8,0.7,1.9,0.7,3.1c0,1.4-0.4,2.6-1.1,3.6
			c-0.8,1-1.8,1.7-3.2,2.3S706.3,44.3,704.5,44.3z"/>
		<path class="st0" d="M723.8,43.9c-1.9,0-3.3-0.4-4.1-1.3c-0.9-0.9-1.3-2.3-1.3-4.2v-8.6H715v-5.5h3.3v-5l6.9-0.6v5.6h3.6v5.5h-3.6
			v7.3c0,0.5,0.1,0.8,0.4,1c0.3,0.2,0.6,0.3,1,0.3h2.2v5.5H723.8z"/>
		<path class="st0" d="M738.9,44.3c-1.2,0-2.3-0.2-3.2-0.7c-1-0.5-1.8-1.1-2.5-2c-0.7-0.9-1.2-1.9-1.6-3.2c-0.4-1.3-0.6-2.7-0.6-4.3
			c0-2.2,0.3-4,1-5.5c0.7-1.5,1.6-2.7,2.8-3.5s2.6-1.2,4.1-1.2c0.9,0,1.7,0.1,2.4,0.4s1.4,0.6,1.9,1.1c0.5,0.5,0.9,1,1.2,1.7h0.4
			l0.3-2.8h6.6v19.6h-6.6l-0.3-2.8h-0.4c-0.4,1-1,1.7-2.1,2.3C741.4,44,740.2,44.3,738.9,44.3z M741.5,38.8c0.8,0,1.4-0.2,1.9-0.5
			c0.5-0.3,0.8-0.8,1.1-1.3c0.2-0.6,0.3-1.2,0.3-2v-1.7c0-0.8-0.1-1.5-0.4-2.1c-0.3-0.6-0.6-1-1.1-1.3c-0.5-0.3-1-0.4-1.6-0.4
			c-0.9,0-1.6,0.2-2.1,0.6c-0.5,0.4-0.9,0.9-1.2,1.6c-0.2,0.7-0.4,1.5-0.4,2.4c0,0.9,0.1,1.7,0.3,2.4c0.2,0.7,0.6,1.3,1.1,1.6
			S740.6,38.8,741.5,38.8z"/>
		<path class="st0" d="M755.5,43.9V24.3h6.6l0.3,3.2h0.3c0.5-1.2,1.2-2.1,2.3-2.7c1-0.6,2.2-0.9,3.5-0.9c1,0,1.9,0.1,2.7,0.4
			c0.8,0.3,1.6,0.7,2.2,1.4c0.6,0.6,1.1,1.4,1.5,2.5c0.3,1,0.5,2.3,0.5,3.7v12h-6.9V33.4c0-0.9-0.1-1.6-0.3-2.2
			c-0.2-0.6-0.5-1-0.9-1.3s-1-0.4-1.7-0.4c-0.7,0-1.3,0.2-1.8,0.5c-0.5,0.3-0.8,0.8-1.1,1.3s-0.4,1-0.4,1.5v11.1H755.5z"/>
		<path class="st0" d="M786.3,43.9c-1.9,0-3.3-0.4-4.1-1.3c-0.9-0.9-1.3-2.3-1.3-4.2v-8.6h-3.3v-5.5h3.3v-5l6.9-0.6v5.6h3.6v5.5
			h-3.6v7.3c0,0.5,0.1,0.8,0.4,1c0.3,0.2,0.6,0.3,1,0.3h2.2v5.5H786.3z"/>
	</g>
</g>
</svg>
