<?xml version="1.0" encoding="utf-8"?>
<!-- Generator: Adobe Illustrator 23.0.6, SVG Export Plug-In . SVG Version: 6.00 Build 0)  -->
<svg version="1.1" id="Layer_1" xmlns="http://www.w3.org/2000/svg" xmlns:xlink="http://www.w3.org/1999/xlink" x="0px" y="0px"
	 viewBox="0 0 800 60" style="enable-background:new 0 0 800 60;" xml:space="preserve">
<style type="text/css">
	.st0{fill:#E1E1E1;}
	.st1{fill:#0078D7;}
</style>
<g>
	<g>
		<path class="st0" d="M25.3,44.3c-2.2,0-4.1-0.3-5.9-0.9c-1.7-0.6-3.3-1.6-4.5-2.8s-2.2-2.7-2.9-4.5c-0.7-1.8-1-3.9-1-6.2
			c0-2.3,0.3-4.4,1-6.2c0.7-1.8,1.7-3.3,2.9-4.5c1.3-1.2,2.8-2.1,4.5-2.8c1.7-0.6,3.7-0.9,5.9-0.9c2.5,0,4.7,0.4,6.7,1.3
			c1.9,0.9,3.5,2.1,4.7,3.6c1.2,1.5,1.9,3.3,2.1,5.4h-7.9c-0.2-0.7-0.6-1.4-1.1-1.9c-0.5-0.6-1.1-1-1.9-1.3
			c-0.7-0.3-1.6-0.5-2.5-0.5c-1.3,0-2.4,0.3-3.3,0.8c-1,0.5-1.7,1.4-2.2,2.5C19.2,26.5,19,28,19,29.8c0,1.4,0.2,2.6,0.5,3.6
			c0.3,1,0.7,1.8,1.3,2.4c0.6,0.6,1.2,1.1,2,1.4c0.8,0.3,1.6,0.4,2.6,0.4c0.9,0,1.7-0.2,2.5-0.5c0.8-0.3,1.4-0.7,1.9-1.3
			c0.5-0.6,0.9-1.2,1.1-1.9h7.9c-0.2,2.1-0.9,3.9-2.1,5.4c-1.2,1.6-2.8,2.8-4.7,3.6C29.9,43.9,27.7,44.3,25.3,44.3z"/>
		<path class="st0" d="M41.6,43.9V15.8H49v10.6h0.3c0.5-1.3,1.3-2.2,2.4-2.9c1.1-0.6,2.4-0.9,3.8-0.9c1,0,2,0.2,2.9,0.5
			c0.9,0.3,1.7,0.8,2.3,1.5c0.7,0.7,1.2,1.5,1.6,2.6c0.4,1.1,0.6,2.4,0.6,4v12.8h-7.4V32.7c0-0.9-0.1-1.7-0.3-2.3
			c-0.2-0.6-0.5-1.1-1-1.4c-0.4-0.3-1-0.5-1.8-0.5c-0.8,0-1.4,0.2-1.9,0.5c-0.5,0.4-0.9,0.8-1.1,1.3C49.1,30.9,49,31.5,49,32v11.9
			H41.6z"/>
		<path class="st0" d="M66.6,43.9v-21h6.7l0.3,3h0.3c0.5-1.3,1.2-2.2,2.1-2.7c1-0.4,2.1-0.7,3.3-0.7c0.2,0,0.4,0,0.6,0
			c0.2,0,0.4,0,0.5,0v6.9c-0.1,0-0.3,0-0.5,0c-0.2,0-0.5,0-0.8,0c-1.3,0-2.4,0.2-3.1,0.5c-0.7,0.3-1.3,0.8-1.6,1.5
			C74.2,32.3,74,33.1,74,34v9.9H66.6z"/>
		<path class="st0" d="M92.9,44.3c-1.6,0-3.1-0.2-4.4-0.7c-1.3-0.5-2.4-1.2-3.4-2.1c-1-0.9-1.7-2.1-2.2-3.4s-0.8-2.9-0.8-4.6
			c0-2.2,0.4-4.1,1.3-5.7c0.8-1.6,2.1-2.9,3.7-3.8c1.6-0.9,3.6-1.4,5.8-1.4c1.6,0,3.1,0.2,4.4,0.7s2.4,1.2,3.4,2.1
			c1,0.9,1.7,2.1,2.2,3.4c0.5,1.3,0.8,2.9,0.8,4.6c0,2.2-0.4,4.1-1.3,5.7c-0.8,1.6-2.1,2.9-3.6,3.8C97.2,43.9,95.2,44.3,92.9,44.3z
			 M92.9,38.4c0.7,0,1.3-0.2,1.8-0.5c0.5-0.3,0.9-0.9,1.2-1.6c0.3-0.7,0.4-1.7,0.4-2.9c0-0.9-0.1-1.7-0.2-2.3
			c-0.2-0.6-0.4-1.1-0.7-1.5c-0.3-0.4-0.6-0.7-1-0.9c-0.4-0.2-0.9-0.3-1.4-0.3c-0.7,0-1.3,0.2-1.8,0.5c-0.5,0.3-0.9,0.9-1.2,1.6
			c-0.3,0.7-0.4,1.7-0.4,2.9c0,0.9,0.1,1.7,0.2,2.3c0.2,0.6,0.4,1.1,0.7,1.5c0.3,0.4,0.6,0.7,1.1,0.9C92,38.3,92.4,38.4,92.9,38.4z"
			/>
		<path class="st0" d="M106.7,43.9v-21h7.1l0.3,3.4h0.3c0.5-1.3,1.3-2.2,2.4-2.9c1.1-0.6,2.4-0.9,3.8-0.9c1,0,2,0.2,2.9,0.5
			c0.9,0.3,1.7,0.8,2.3,1.5c0.7,0.7,1.2,1.5,1.6,2.6c0.4,1.1,0.6,2.4,0.6,4v12.8h-7.4V32.7c0-0.9-0.1-1.7-0.3-2.3
			c-0.2-0.6-0.5-1.1-1-1.4c-0.4-0.3-1-0.5-1.8-0.5c-0.8,0-1.4,0.2-1.9,0.5c-0.5,0.4-0.9,0.8-1.1,1.3c-0.3,0.5-0.4,1.1-0.4,1.7v11.9
			H106.7z"/>
		<path class="st0" d="M141.4,44.3c-1.6,0-3.1-0.2-4.4-0.7c-1.3-0.5-2.4-1.2-3.4-2.1c-1-0.9-1.7-2.1-2.2-3.4s-0.8-2.9-0.8-4.6
			c0-2.2,0.4-4.1,1.3-5.7c0.8-1.6,2.1-2.9,3.7-3.8c1.6-0.9,3.6-1.4,5.8-1.4c1.6,0,3.1,0.2,4.4,0.7s2.4,1.2,3.4,2.1
			c1,0.9,1.7,2.1,2.2,3.4c0.5,1.3,0.8,2.9,0.8,4.6c0,2.2-0.4,4.1-1.3,5.7c-0.8,1.6-2.1,2.9-3.6,3.8
			C145.6,43.9,143.7,44.3,141.4,44.3z M141.4,38.4c0.7,0,1.3-0.2,1.8-0.5c0.5-0.3,0.9-0.9,1.2-1.6c0.3-0.7,0.4-1.7,0.4-2.9
			c0-0.9-0.1-1.7-0.2-2.3c-0.2-0.6-0.4-1.1-0.7-1.5c-0.3-0.4-0.6-0.7-1-0.9c-0.4-0.2-0.9-0.3-1.4-0.3c-0.7,0-1.3,0.2-1.8,0.5
			c-0.5,0.3-0.9,0.9-1.2,1.6c-0.3,0.7-0.4,1.7-0.4,2.9c0,0.9,0.1,1.7,0.2,2.3c0.2,0.6,0.4,1.1,0.7,1.5c0.3,0.4,0.6,0.7,1.1,0.9
			C140.4,38.3,140.9,38.4,141.4,38.4z"/>
		<path class="st1" d="M163.2,43.9V15.8h12c2.5,0,4.6,0.4,6.2,1.2c1.6,0.8,2.8,1.9,3.6,3.3c0.8,1.4,1.2,3.1,1.2,5
			c0,2.1-0.5,3.8-1.4,5.2s-2.2,2.5-3.9,3.3c-1.7,0.7-3.6,1.1-5.8,1.1h-4.8v-6h4.1c1.4,0,2.3-0.3,2.9-1c0.6-0.7,0.9-1.5,0.9-2.4
			c0-1.2-0.4-2-1.1-2.5c-0.7-0.5-1.6-0.7-2.7-0.7h-4.4l0.8-0.8v22.4H163.2z"/>
		<path class="st1" d="M192.9,21.2c-1.1,0-2-0.3-2.7-0.8c-0.7-0.6-1.1-1.3-1.1-2.4c0-1,0.4-1.8,1.1-2.4c0.7-0.6,1.6-0.8,2.7-0.8
			s2,0.3,2.7,0.8c0.7,0.6,1.1,1.3,1.1,2.4c0,1-0.4,1.8-1.1,2.4C194.9,20.9,194,21.2,192.9,21.2z M189.2,43.9v-21h7.4v21H189.2z"/>
		<path class="st1" d="M210.3,44.3c-1.6,0-3.1-0.3-4.4-0.8s-2.4-1.3-3.4-2.2c-0.9-1-1.7-2.1-2.2-3.5c-0.5-1.3-0.8-2.8-0.8-4.5
			c0-1.6,0.3-3.1,0.8-4.5c0.5-1.3,1.2-2.5,2.2-3.4c1-1,2.1-1.7,3.4-2.2c1.3-0.5,2.8-0.8,4.5-0.8c1.9,0,3.6,0.4,5.1,1.1
			c1.5,0.7,2.6,1.7,3.5,2.9c0.8,1.3,1.3,2.7,1.3,4.4h-7.2c-0.1-0.6-0.3-1-0.5-1.4c-0.3-0.4-0.6-0.6-1-0.8c-0.4-0.2-0.8-0.3-1.3-0.3
			c-0.6,0-1.1,0.1-1.5,0.3c-0.4,0.2-0.7,0.6-1,1c-0.3,0.4-0.5,0.9-0.6,1.5c-0.1,0.6-0.2,1.3-0.2,2.1c0,1.2,0.1,2.1,0.4,2.8
			s0.6,1.3,1.1,1.6c0.5,0.3,1,0.5,1.7,0.5c0.6,0,1.1-0.1,1.5-0.3s0.7-0.5,1-0.9c0.2-0.4,0.4-0.8,0.4-1.3h7.1
			c-0.1,1.7-0.5,3.2-1.4,4.4c-0.9,1.3-2.1,2.2-3.5,2.9C213.9,44,212.2,44.3,210.3,44.3z"/>
		<path class="st1" d="M231.2,43.9c-2,0-3.5-0.5-4.4-1.4s-1.4-2.4-1.4-4.5v-9.2h-3.5v-5.9h3.5v-5.4l7.4-0.6v6h3.8v5.9h-3.8v7.8
			c0,0.5,0.1,0.9,0.4,1.1c0.3,0.2,0.6,0.3,1.1,0.3h2.3v5.9H231.2z"/>
		<path class="st1" d="M247.1,44.3c-1.6,0-3-0.3-4.1-0.9c-1.1-0.6-1.9-1.6-2.5-2.8c-0.5-1.2-0.8-2.7-0.8-4.4V22.9h7.4v11.2
			c0,0.9,0.1,1.7,0.3,2.3c0.2,0.6,0.5,1.1,1,1.4s1,0.5,1.8,0.5c0.8,0,1.4-0.2,1.9-0.5c0.5-0.4,0.9-0.8,1.1-1.3
			c0.3-0.5,0.4-1.1,0.4-1.7V22.9h7.4v21h-7.1l-0.3-3.4h-0.3c-0.5,1.3-1.3,2.2-2.4,2.9C249.7,44,248.5,44.3,247.1,44.3z"/>
		<path class="st1" d="M265.1,43.9v-21h6.7l0.3,3h0.3c0.5-1.3,1.2-2.2,2.1-2.7c1-0.4,2.1-0.7,3.3-0.7c0.2,0,0.4,0,0.6,0
			c0.2,0,0.4,0,0.5,0v6.9c-0.1,0-0.3,0-0.5,0c-0.2,0-0.5,0-0.8,0c-1.3,0-2.4,0.2-3.1,0.5c-0.7,0.3-1.3,0.8-1.6,1.5
			c-0.3,0.7-0.4,1.5-0.4,2.4v9.9H265.1z"/>
		<path class="st1" d="M291.4,44.3c-2.3,0-4.2-0.4-5.8-1.3s-2.8-2.1-3.7-3.7s-1.3-3.5-1.3-5.6c0-2.3,0.4-4.3,1.3-5.9
			c0.9-1.7,2.1-2.9,3.7-3.8c1.6-0.9,3.4-1.3,5.5-1.3c2.5,0,4.6,0.5,6.2,1.6c1.6,1.1,2.8,2.6,3.5,4.5c0.7,1.9,0.9,4.1,0.7,6.5h-13.7
			c0,0.8,0.1,1.4,0.4,2c0.3,0.6,0.7,1,1.3,1.3c0.5,0.3,1.2,0.4,1.9,0.4c0.8,0,1.5-0.1,2-0.4c0.5-0.3,0.8-0.7,1-1.1h6.9
			c-0.2,1.4-0.7,2.6-1.6,3.7c-0.9,1-2,1.9-3.5,2.4S293.2,44.3,291.4,44.3z M287.8,31.4l-0.6-0.6h7.7l-0.7,0.6
			c0.1-0.7-0.1-1.3-0.3-1.8s-0.6-0.9-1.1-1.1s-1.1-0.4-1.7-0.4c-0.7,0-1.3,0.1-1.8,0.4s-0.9,0.7-1.1,1.2
			C287.9,30.1,287.8,30.7,287.8,31.4z"/>
		<path class="st0" d="M325.9,44.3c-2.2,0-4.1-0.3-5.9-0.9c-1.7-0.6-3.3-1.6-4.5-2.8s-2.2-2.7-2.9-4.5c-0.7-1.8-1-3.9-1-6.2
			c0-2.3,0.3-4.4,1-6.2c0.7-1.8,1.7-3.3,2.9-4.5c1.3-1.2,2.8-2.1,4.5-2.8c1.7-0.6,3.7-0.9,5.9-0.9c2.5,0,4.7,0.4,6.7,1.3
			c1.9,0.9,3.5,2.1,4.7,3.6c1.2,1.5,1.9,3.3,2.1,5.4h-7.9c-0.2-0.7-0.6-1.4-1.1-1.9c-0.5-0.6-1.1-1-1.9-1.3
			c-0.7-0.3-1.6-0.5-2.5-0.5c-1.3,0-2.4,0.3-3.3,0.8c-1,0.5-1.7,1.4-2.2,2.5c-0.5,1.1-0.8,2.6-0.8,4.5c0,1.4,0.2,2.6,0.5,3.6
			c0.3,1,0.7,1.8,1.3,2.4c0.6,0.6,1.2,1.1,2,1.4c0.8,0.3,1.6,0.4,2.6,0.4c0.9,0,1.7-0.2,2.5-0.5c0.8-0.3,1.4-0.7,1.9-1.3
			c0.5-0.6,0.9-1.2,1.1-1.9h7.9c-0.2,2.1-0.9,3.9-2.1,5.4c-1.2,1.6-2.8,2.8-4.7,3.6C330.5,43.9,328.3,44.3,325.9,44.3z"/>
		<path class="st0" d="M349.7,44.3c-1.3,0-2.4-0.2-3.5-0.7c-1-0.5-1.9-1.2-2.7-2.1c-0.7-0.9-1.3-2.1-1.7-3.4
			c-0.4-1.3-0.6-2.9-0.6-4.6c0-2.3,0.4-4.3,1.1-5.9c0.7-1.6,1.7-2.9,2.9-3.7c1.3-0.8,2.7-1.3,4.4-1.3c1,0,1.8,0.1,2.6,0.4
			c0.8,0.3,1.5,0.7,2.1,1.2c0.6,0.5,1,1.1,1.3,1.8h0.4l0.3-3h7v21h-7l-0.3-3h-0.4c-0.4,1-1.1,1.9-2.2,2.5
			C352.3,44,351.1,44.3,349.7,44.3z M352.4,38.4c0.8,0,1.5-0.2,2-0.5c0.5-0.3,0.9-0.8,1.1-1.4c0.2-0.6,0.4-1.3,0.4-2.2v-1.8
			c0-0.9-0.1-1.6-0.4-2.2c-0.3-0.6-0.7-1.1-1.2-1.4c-0.5-0.3-1.1-0.5-1.8-0.5c-0.9,0-1.7,0.2-2.2,0.6c-0.6,0.4-1,1-1.2,1.7
			c-0.3,0.7-0.4,1.6-0.4,2.6c0,1,0.1,1.8,0.3,2.6s0.6,1.3,1.2,1.8C350.8,38.2,351.5,38.4,352.4,38.4z"/>
		<path class="st0" d="M367.4,43.9v-21h6.7l0.3,3h0.3c0.5-1.3,1.2-2.2,2.1-2.7c1-0.4,2.1-0.7,3.3-0.7c0.2,0,0.4,0,0.6,0
			c0.2,0,0.4,0,0.5,0v6.9c-0.1,0-0.3,0-0.5,0c-0.2,0-0.5,0-0.8,0c-1.3,0-2.4,0.2-3.1,0.5c-0.7,0.3-1.3,0.8-1.6,1.5
			c-0.3,0.7-0.4,1.5-0.4,2.4v9.9H367.4z"/>
		<path class="st0" d="M391.5,44.3c-1.3,0-2.4-0.2-3.5-0.7c-1-0.5-1.9-1.2-2.7-2.1c-0.7-0.9-1.3-2.1-1.7-3.4
			c-0.4-1.3-0.6-2.9-0.6-4.6c0-2.3,0.4-4.3,1.1-5.9c0.7-1.6,1.7-2.9,2.9-3.7c1.3-0.8,2.7-1.3,4.4-1.3c1,0,1.8,0.1,2.6,0.4
			c0.8,0.3,1.5,0.7,2.1,1.2c0.6,0.5,1,1.1,1.3,1.8h0.3V15.8h7.4v28.1h-7l-0.3-3h-0.4c-0.4,1-1.1,1.9-2.2,2.5
			C394.1,44,392.9,44.3,391.5,44.3z M394.2,38.4c0.8,0,1.5-0.2,2-0.5c0.5-0.3,0.9-0.8,1.1-1.4c0.2-0.6,0.4-1.3,0.4-2.2v-1.8
			c0-0.9-0.1-1.6-0.4-2.2c-0.3-0.6-0.7-1.1-1.2-1.4c-0.5-0.3-1.1-0.5-1.8-0.5c-0.9,0-1.7,0.2-2.2,0.6c-0.6,0.4-1,1-1.2,1.7
			c-0.3,0.7-0.4,1.6-0.4,2.6c0,1,0.1,1.8,0.3,2.6s0.6,1.3,1.2,1.8C392.6,38.2,393.3,38.4,394.2,38.4z"/>
		<path class="st0" d="M418.7,43.9V28.8h-3.1v-5.9h3.1v-1.4c0-1.8,0.6-3.2,1.8-4.2s2.9-1.5,5.1-1.5h4.7v4.7h-2.7
			c-0.4,0-0.8,0.1-1.1,0.3c-0.3,0.2-0.4,0.5-0.4,1.1v1h3.9v5.9h-3.9v15.1H418.7z"/>
		<path class="st0" d="M442.4,44.3c-1.6,0-3.1-0.2-4.4-0.7c-1.3-0.5-2.4-1.2-3.4-2.1s-1.7-2.1-2.2-3.4c-0.5-1.3-0.8-2.9-0.8-4.6
			c0-2.2,0.4-4.1,1.3-5.7s2.1-2.9,3.7-3.8c1.6-0.9,3.6-1.4,5.8-1.4c1.6,0,3.1,0.2,4.4,0.7s2.4,1.2,3.4,2.1c1,0.9,1.7,2.1,2.2,3.4
			c0.5,1.3,0.8,2.9,0.8,4.6c0,2.2-0.4,4.1-1.3,5.7c-0.8,1.6-2,2.9-3.6,3.8C446.7,43.9,444.7,44.3,442.4,44.3z M442.4,38.4
			c0.7,0,1.3-0.2,1.8-0.5c0.5-0.3,0.9-0.9,1.2-1.6c0.3-0.7,0.4-1.7,0.4-2.9c0-0.9-0.1-1.7-0.2-2.3c-0.2-0.6-0.4-1.1-0.7-1.5
			c-0.3-0.4-0.6-0.7-1-0.9c-0.4-0.2-0.9-0.3-1.4-0.3c-0.7,0-1.3,0.2-1.8,0.5c-0.5,0.3-0.9,0.9-1.2,1.6c-0.3,0.7-0.4,1.7-0.4,2.9
			c0,0.9,0.1,1.7,0.2,2.3s0.4,1.1,0.7,1.5c0.3,0.4,0.6,0.7,1.1,0.9S441.9,38.4,442.4,38.4z"/>
		<path class="st0" d="M456.2,43.9v-21h6.7l0.3,3h0.3c0.5-1.3,1.2-2.2,2.1-2.7c1-0.4,2.1-0.7,3.3-0.7c0.2,0,0.4,0,0.6,0s0.4,0,0.5,0
			v6.9c-0.1,0-0.3,0-0.5,0s-0.5,0-0.8,0c-1.3,0-2.4,0.2-3.1,0.5c-0.7,0.3-1.3,0.8-1.6,1.5c-0.3,0.7-0.4,1.5-0.4,2.4v9.9H456.2z"/>
		<path class="st0" d="M480.9,43.9V15.8h7.8v28.1H480.9z M487.2,33v-6.6h13.6V33H487.2z M499.4,43.9V15.8h7.8v28.1H499.4z"/>
		<path class="st0" d="M521.2,44.3c-1.6,0-3.1-0.2-4.4-0.7c-1.3-0.5-2.4-1.2-3.4-2.1s-1.7-2.1-2.2-3.4c-0.5-1.3-0.8-2.9-0.8-4.6
			c0-2.2,0.4-4.1,1.3-5.7s2.1-2.9,3.7-3.8c1.6-0.9,3.6-1.4,5.8-1.4c1.6,0,3.1,0.2,4.4,0.7s2.4,1.2,3.4,2.1c1,0.9,1.7,2.1,2.2,3.4
			c0.5,1.3,0.8,2.9,0.8,4.6c0,2.2-0.4,4.1-1.3,5.7c-0.8,1.6-2,2.9-3.6,3.8C525.5,43.9,523.5,44.3,521.2,44.3z M521.2,38.4
			c0.7,0,1.3-0.2,1.8-0.5c0.5-0.3,0.9-0.9,1.2-1.6c0.3-0.7,0.4-1.7,0.4-2.9c0-0.9-0.1-1.7-0.2-2.3c-0.2-0.6-0.4-1.1-0.7-1.5
			c-0.3-0.4-0.6-0.7-1-0.9c-0.4-0.2-0.9-0.3-1.4-0.3c-0.7,0-1.3,0.2-1.8,0.5c-0.5,0.3-0.9,0.9-1.2,1.6c-0.3,0.7-0.4,1.7-0.4,2.9
			c0,0.9,0.1,1.7,0.2,2.3s0.4,1.1,0.7,1.5c0.3,0.4,0.6,0.7,1.1,0.9S520.7,38.4,521.2,38.4z"/>
		<path class="st0" d="M535,43.9v-21h7.1l0.2,3.4h0.3c0.5-1.3,1.2-2.2,2.3-2.9c1.1-0.6,2.3-0.9,3.6-0.9c1.4,0,2.6,0.3,3.8,1
			c1.2,0.6,2.1,1.8,2.6,3.5h0.3c0.4-1.5,1.3-2.6,2.4-3.3c1.2-0.7,2.6-1.1,4.1-1.1c1.3,0,2.5,0.3,3.5,0.8c1.1,0.6,1.9,1.5,2.5,2.7
			c0.6,1.2,0.9,2.9,0.9,5v12.8h-7.4V32.7c0-0.9-0.1-1.7-0.3-2.3s-0.5-1.1-0.9-1.4c-0.4-0.3-1-0.5-1.6-0.5c-0.7,0-1.3,0.2-1.7,0.5
			c-0.5,0.4-0.8,0.8-1,1.3c-0.2,0.5-0.3,1.1-0.3,1.7v11.9h-7.4V32.7c0-0.9-0.1-1.7-0.3-2.3c-0.2-0.6-0.5-1.1-0.9-1.4
			c-0.4-0.3-1-0.5-1.6-0.5c-0.7,0-1.3,0.2-1.7,0.5c-0.5,0.4-0.8,0.8-1,1.3c-0.2,0.5-0.3,1.1-0.3,1.7v11.9H535z"/>
		<path class="st0" d="M582.4,44.3c-2.3,0-4.2-0.4-5.8-1.3c-1.6-0.9-2.8-2.1-3.7-3.7s-1.3-3.5-1.3-5.6c0-2.3,0.4-4.3,1.3-5.9
			c0.9-1.7,2.1-2.9,3.7-3.8s3.4-1.3,5.5-1.3c2.5,0,4.6,0.5,6.2,1.6c1.6,1.1,2.8,2.6,3.5,4.5c0.7,1.9,0.9,4.1,0.7,6.5h-13.7
			c0,0.8,0.1,1.4,0.4,2c0.3,0.6,0.7,1,1.3,1.3c0.5,0.3,1.2,0.4,1.9,0.4c0.8,0,1.5-0.1,2-0.4c0.5-0.3,0.8-0.7,1-1.1h6.9
			c-0.2,1.4-0.7,2.6-1.6,3.7c-0.9,1-2,1.9-3.5,2.4S584.2,44.3,582.4,44.3z M578.9,31.4l-0.6-0.6h7.7l-0.7,0.6
			c0.1-0.7-0.1-1.3-0.3-1.8c-0.3-0.5-0.6-0.9-1.1-1.1c-0.5-0.3-1.1-0.4-1.7-0.4c-0.7,0-1.3,0.1-1.8,0.4s-0.9,0.7-1.1,1.2
			C579,30.1,578.9,30.7,578.9,31.4z"/>
		<path class="st0" d="M601.9,43.9l8.8-28.1h11.1l8.8,28.1h-8.1l-5.1-18.6l-1-3.7h-0.3l-1,3.7l-5.1,18.6H601.9z M610.9,38.9l1.7-5.9
			h7.2l1.7,5.9H610.9z"/>
		<path class="st0" d="M641.5,44.3c-1.5,0-2.8-0.2-4-0.5c-1.2-0.3-2.2-0.8-3-1.4c-0.8-0.6-1.5-1.4-1.9-2.2c-0.5-0.9-0.7-1.8-0.7-2.8
			h7.2c0.1,0.4,0.2,0.8,0.4,1.1c0.2,0.3,0.5,0.5,0.9,0.6c0.4,0.1,0.8,0.2,1.3,0.2c0.7,0,1.2-0.1,1.6-0.4s0.5-0.6,0.5-1
			c0-0.4-0.1-0.7-0.3-0.8c-0.2-0.2-0.5-0.3-1-0.4c-0.5-0.1-1.1-0.2-1.9-0.3c-1.9-0.3-3.4-0.7-4.6-1.2c-1.2-0.5-2.1-1.2-2.7-2.1
			c-0.6-0.9-0.9-2-0.9-3.4c0-1.4,0.4-2.6,1.2-3.7c0.8-1.1,1.9-1.9,3.3-2.5c1.4-0.6,3.1-0.9,4.9-0.9c1.7,0,3.3,0.3,4.6,0.8
			c1.3,0.6,2.4,1.3,3.1,2.3c0.8,1,1.2,2.1,1.3,3.5h-7.2c0-0.3-0.1-0.6-0.3-0.8c-0.2-0.2-0.4-0.4-0.7-0.5c-0.3-0.1-0.6-0.2-1.1-0.2
			c-0.5,0-1,0.1-1.3,0.3c-0.3,0.2-0.5,0.5-0.5,1c0,0.4,0.1,0.6,0.4,0.8c0.2,0.2,0.7,0.4,1.2,0.5c0.6,0.1,1.3,0.3,2.3,0.4
			c1.8,0.2,3.3,0.6,4.4,1.1c1.1,0.5,1.9,1.2,2.4,2.1c0.5,0.9,0.8,2,0.8,3.4c0,1.5-0.4,2.8-1.2,3.9c-0.8,1.1-1.9,1.9-3.4,2.4
			C645.2,44,643.4,44.3,641.5,44.3z"/>
		<path class="st0" d="M662.6,44.3c-1.5,0-2.8-0.2-4-0.5c-1.2-0.3-2.2-0.8-3-1.4c-0.8-0.6-1.5-1.4-1.9-2.2c-0.5-0.9-0.7-1.8-0.7-2.8
			h7.2c0.1,0.4,0.2,0.8,0.4,1.1c0.2,0.3,0.5,0.5,0.9,0.6c0.4,0.1,0.8,0.2,1.3,0.2c0.7,0,1.2-0.1,1.6-0.4s0.5-0.6,0.5-1
			c0-0.4-0.1-0.7-0.3-0.8c-0.2-0.2-0.5-0.3-1-0.4c-0.5-0.1-1.1-0.2-1.9-0.3c-1.9-0.3-3.4-0.7-4.6-1.2c-1.2-0.5-2.1-1.2-2.7-2.1
			c-0.6-0.9-0.9-2-0.9-3.4c0-1.4,0.4-2.6,1.2-3.7c0.8-1.1,1.9-1.9,3.3-2.5c1.4-0.6,3.1-0.9,4.9-0.9c1.7,0,3.3,0.3,4.6,0.8
			c1.3,0.6,2.4,1.3,3.1,2.3c0.8,1,1.2,2.1,1.3,3.5h-7.2c0-0.3-0.1-0.6-0.3-0.8c-0.2-0.2-0.4-0.4-0.7-0.5c-0.3-0.1-0.6-0.2-1.1-0.2
			c-0.5,0-1,0.1-1.3,0.3c-0.3,0.2-0.5,0.5-0.5,1c0,0.4,0.1,0.6,0.4,0.8c0.2,0.2,0.7,0.4,1.2,0.5c0.6,0.1,1.3,0.3,2.3,0.4
			c1.8,0.2,3.3,0.6,4.4,1.1c1.1,0.5,1.9,1.2,2.4,2.1c0.5,0.9,0.8,2,0.8,3.4c0,1.5-0.4,2.8-1.2,3.9c-0.8,1.1-1.9,1.9-3.4,2.4
			C666.3,44,664.6,44.3,662.6,44.3z"/>
		<path class="st0" d="M679.1,21.2c-1.1,0-2-0.3-2.7-0.8c-0.7-0.6-1.1-1.3-1.1-2.4c0-1,0.4-1.8,1.1-2.4c0.7-0.6,1.6-0.8,2.7-0.8
			c1.1,0,2,0.3,2.7,0.8c0.7,0.6,1.1,1.3,1.1,2.4c0,1-0.4,1.8-1.1,2.4C681.1,20.9,680.2,21.2,679.1,21.2z M675.4,43.9v-21h7.4v21
			H675.4z"/>
		<path class="st0" d="M695.3,44.3c-1.5,0-2.8-0.2-4-0.5c-1.2-0.3-2.2-0.8-3-1.4c-0.8-0.6-1.5-1.4-1.9-2.2c-0.5-0.9-0.7-1.8-0.7-2.8
			h7.2c0.1,0.4,0.2,0.8,0.4,1.1c0.2,0.3,0.5,0.5,0.9,0.6c0.4,0.1,0.8,0.2,1.3,0.2c0.7,0,1.2-0.1,1.6-0.4s0.5-0.6,0.5-1
			c0-0.4-0.1-0.7-0.3-0.8c-0.2-0.2-0.5-0.3-1-0.4c-0.5-0.1-1.1-0.2-1.9-0.3c-1.9-0.3-3.4-0.7-4.6-1.2c-1.2-0.5-2.1-1.2-2.7-2.1
			c-0.6-0.9-0.9-2-0.9-3.4c0-1.4,0.4-2.6,1.2-3.7c0.8-1.1,1.9-1.9,3.3-2.5c1.4-0.6,3.1-0.9,4.9-0.9c1.7,0,3.3,0.3,4.6,0.8
			c1.3,0.6,2.4,1.3,3.1,2.3c0.8,1,1.2,2.1,1.3,3.5h-7.2c0-0.3-0.1-0.6-0.3-0.8c-0.2-0.2-0.4-0.4-0.7-0.5c-0.3-0.1-0.6-0.2-1.1-0.2
			c-0.5,0-1,0.1-1.3,0.3c-0.3,0.2-0.5,0.5-0.5,1c0,0.4,0.1,0.6,0.4,0.8c0.2,0.2,0.7,0.4,1.2,0.5c0.6,0.1,1.3,0.3,2.3,0.4
			c1.8,0.2,3.3,0.6,4.4,1.1c1.1,0.5,1.9,1.2,2.4,2.1c0.5,0.9,0.8,2,0.8,3.4c0,1.5-0.4,2.8-1.2,3.9c-0.8,1.1-1.9,1.9-3.4,2.4
			C698.9,44,697.2,44.3,695.3,44.3z"/>
		<path class="st0" d="M715.9,43.9c-2,0-3.5-0.5-4.4-1.4c-0.9-0.9-1.4-2.4-1.4-4.5v-9.2h-3.5v-5.9h3.5v-5.4l7.4-0.6v6h3.8v5.9h-3.8
			v7.8c0,0.5,0.1,0.9,0.4,1.1c0.3,0.2,0.6,0.3,1.1,0.3h2.3v5.9H715.9z"/>
		<path class="st0" d="M732.2,44.3c-1.3,0-2.4-0.2-3.5-0.7c-1-0.5-1.9-1.2-2.7-2.1c-0.7-0.9-1.3-2.1-1.7-3.4
			c-0.4-1.3-0.6-2.9-0.6-4.6c0-2.3,0.4-4.3,1.1-5.9c0.7-1.6,1.7-2.9,3-3.7c1.3-0.8,2.7-1.3,4.4-1.3c1,0,1.8,0.1,2.6,0.4
			c0.8,0.3,1.5,0.7,2.1,1.2c0.6,0.5,1,1.1,1.3,1.8h0.4l0.3-3h7v21h-7l-0.3-3h-0.4c-0.4,1-1.1,1.9-2.2,2.5
			C734.8,44,733.6,44.3,732.2,44.3z M734.9,38.4c0.8,0,1.5-0.2,2-0.5c0.5-0.3,0.9-0.8,1.1-1.4c0.2-0.6,0.4-1.3,0.4-2.2v-1.8
			c0-0.9-0.1-1.6-0.4-2.2c-0.3-0.6-0.7-1.1-1.2-1.4c-0.5-0.3-1.1-0.5-1.8-0.5c-0.9,0-1.7,0.2-2.2,0.6s-1,1-1.2,1.7
			c-0.3,0.7-0.4,1.6-0.4,2.6c0,1,0.1,1.8,0.3,2.6s0.6,1.3,1.2,1.8C733.3,38.2,734,38.4,734.9,38.4z"/>
		<path class="st0" d="M750,43.9v-21h7.1l0.3,3.4h0.3c0.5-1.3,1.3-2.2,2.4-2.9c1.1-0.6,2.4-0.9,3.8-0.9c1,0,2,0.2,2.9,0.5
			c0.9,0.3,1.7,0.8,2.3,1.5c0.7,0.7,1.2,1.5,1.6,2.6c0.4,1.1,0.6,2.4,0.6,4v12.8h-7.4V32.7c0-0.9-0.1-1.7-0.3-2.3
			c-0.2-0.6-0.5-1.1-1-1.4c-0.4-0.3-1-0.5-1.8-0.5c-0.8,0-1.4,0.2-1.9,0.5c-0.5,0.4-0.9,0.8-1.1,1.3c-0.3,0.5-0.4,1.1-0.4,1.7v11.9
			H750z"/>
		<path class="st0" d="M782.9,43.9c-2,0-3.5-0.5-4.4-1.4c-0.9-0.9-1.4-2.4-1.4-4.5v-9.2h-3.5v-5.9h3.5v-5.4l7.4-0.6v6h3.8v5.9h-3.8
			v7.8c0,0.5,0.1,0.9,0.4,1.1c0.3,0.2,0.6,0.3,1.1,0.3h2.3v5.9H782.9z"/>
	</g>
</g>
</svg>
